<svg xmlns="http://www.w3.org/2000/svg" width="1400" height="1020" viewBox="0 0 1400 1020" role="img" aria-labelledby="title description">
  <title id="title">Cor.PreDiet temsili arayüz görseli</title>
  <desc id="description">Kişisel veri içermeyen, danışan ve randevu iş akışını gösteren temsili yönetim paneli.</desc>
  <defs>
    <linearGradient id="background" x1="0" x2="1" y2="1">
      <stop stop-color="#edf5f0"/>
      <stop offset="1" stop-color="#d5e7de"/>
    </linearGradient>
    <linearGradient id="stand" x1="0" x2="1">
      <stop stop-color="#849496"/>
      <stop offset=".5" stop-color="#bdc9c9"/>
      <stop offset="1" stop-color="#829193"/>
    </linearGradient>
    <filter id="shadow" x="-20%" y="-20%" width="140%" height="150%">
      <feDropShadow dx="0" dy="20" stdDeviation="23" flood-color="#23483e" flood-opacity=".2"/>
    </filter>
    <clipPath id="screen"><rect x="74" y="69" width="1252" height="780" rx="16"/></clipPath>
  </defs>
  <rect width="1400" height="1020" fill="url(#background)"/>
  <circle cx="1260" cy="110" r="180" fill="#c8e6d7" opacity=".6"/>
  <circle cx="105" cy="920" r="205" fill="#f4fbf2" opacity=".8"/>

  <g filter="url(#shadow)"><rect x="50" y="45" width="1300" height="850" rx="42" fill="#303638"/></g>
  <rect x="74" y="69" width="1252" height="780" rx="16" fill="#f5f6f1"/>
  <g clip-path="url(#screen)" font-family="Arial, Helvetica, sans-serif">
    <rect x="74" y="69" width="248" height="780" fill="#123f3d"/>
    <rect x="101" y="101" width="42" height="42" rx="12" fill="#d0ef72"/>
    <text x="122" y="131" fill="#123f3d" font-family="Georgia, serif" font-size="29" font-style="italic" text-anchor="middle">C</text>
    <text x="158" y="129" fill="#fff" font-size="23" font-weight="700">Cor.PreDiet</text>
    <text x="103" y="200" fill="#9dbeb8" font-size="12" font-weight="700" letter-spacing="2">ÇALIŞMA ALANI</text>
    <rect x="94" y="227" width="207" height="50" rx="12" fill="#ffffff20"/>
    <circle cx="120" cy="252" r="9" fill="#d0ef72"/>
    <text x="145" y="259" fill="#fff" font-size="17" font-weight="700">Genel bakış</text>
    <circle cx="120" cy="318" r="9" fill="none" stroke="#bcd0cc" stroke-width="2"/>
    <text x="145" y="325" fill="#bcd0cc" font-size="17">Danışanlar</text>
    <rect x="111" y="373" width="18" height="18" rx="3" fill="none" stroke="#bcd0cc" stroke-width="2"/>
    <text x="145" y="389" fill="#bcd0cc" font-size="17">Randevular</text>
    <rect x="112" y="438" width="16" height="16" rx="4" fill="none" stroke="#bcd0cc" stroke-width="2"/>
    <text x="145" y="452" fill="#bcd0cc" font-size="17">Paketler</text>
    <circle cx="120" cy="505" r="9" fill="none" stroke="#bcd0cc" stroke-width="2"/>
    <path d="M115 505h10" stroke="#bcd0cc" stroke-width="2"/>
    <text x="145" y="512" fill="#bcd0cc" font-size="17">Cari hesap</text>
    <line x1="101" y1="770" x2="296" y2="770" stroke="#ffffff31"/>
    <text x="103" y="808" fill="#aac8bf" font-size="14">İş akışınız tek yerde.</text>

    <text x="370" y="128" fill="#5d8a81" font-size="13" font-weight="700" letter-spacing="2">GENEL BAKIŞ</text>
    <text x="370" y="179" fill="#153a3b" font-family="Georgia, serif" font-size="43" font-weight="700">Günlük akış</text>
    <text x="371" y="211" fill="#6f8582" font-size="18">Randevular, danışanlar ve hizmetler bir arada.</text>

    <g fill="#fff" stroke="#e3e8e2" stroke-width="2">
      <rect x="370" y="239" width="287" height="125" rx="18"/>
      <rect x="674" y="239" width="287" height="125" rx="18"/>
      <rect x="978" y="239" width="310" height="125" rx="18"/>
    </g>
    <g font-size="16" font-weight="700" fill="#153a3b">
      <text x="398" y="282">Randevular</text>
      <text x="702" y="282">Danışanlar</text>
      <text x="1006" y="282">Hizmet paketleri</text>
    </g>
    <g font-size="14" fill="#81918e">
      <text x="398" y="324">Günlük planlama</text>
      <text x="702" y="324">Kayıt ve takip</text>
      <text x="1006" y="324">Görüşme yönetimi</text>
    </g>
    <circle cx="615" cy="281" r="17" fill="#dff1e9"/>
    <rect x="608" y="274" width="14" height="14" rx="3" fill="none" stroke="#1d756b" stroke-width="2"/>
    <circle cx="919" cy="281" r="17" fill="#fff0e8"/>
    <circle cx="919" cy="278" r="5" fill="none" stroke="#de7653" stroke-width="2"/>
    <path d="M909 290q10-11 20 0" fill="none" stroke="#de7653" stroke-width="2"/>
    <circle cx="1246" cy="281" r="17" fill="#efebff"/>
    <rect x="1239" y="275" width="14" height="12" rx="2" fill="none" stroke="#7265cb" stroke-width="2"/>

    <rect x="370" y="389" width="615" height="412" rx="19" fill="#fff" stroke="#e3e8e2" stroke-width="2"/>
    <text x="398" y="430" fill="#153a3b" font-family="Georgia, serif" font-size="25" font-weight="700">Haftalık takvim</text>
    <text x="898" y="429" fill="#1d756b" font-size="14" font-weight="700">Tümünü gör</text>
    <line x1="398" y1="451" x2="958" y2="451" stroke="#e8ede8"/>
    <g fill="#77918a" font-size="15" font-weight="700" text-anchor="middle">
      <text x="455" y="486">PZT</text><text x="562" y="486">SAL</text><text x="669" y="486">ÇAR</text><text x="776" y="486">PER</text><text x="883" y="486">CUM</text>
    </g>
    <g stroke="#edf1ed">
      <line x1="398" y1="505" x2="958" y2="505"/><line x1="398" y1="600" x2="958" y2="600"/><line x1="398" y1="695" x2="958" y2="695"/>
      <line x1="508" y1="505" x2="508" y2="779"/><line x1="615" y1="505" x2="615" y2="779"/><line x1="722" y1="505" x2="722" y2="779"/><line x1="829" y1="505" x2="829" y2="779"/>
    </g>
    <rect x="409" y="526" width="91" height="61" rx="10" fill="#dcf0e8"/>
    <rect x="624" y="526" width="91" height="61" rx="10" fill="#e9e5fa"/>
    <rect x="838" y="621" width="91" height="61" rx="10" fill="#fff0e7"/>
    <rect x="517" y="716" width="91" height="61" rx="10" fill="#dcecf4"/>
    <g fill="#285e55" font-size="13" font-weight="700">
      <text x="421" y="554">Görüşme</text><text x="636" y="554">Kontrol</text><text x="850" y="649">Görüşme</text><text x="529" y="744">Kontrol</text>
    </g>
    <g fill="#6e8b83" font-size="11">
      <text x="421" y="572">Planlandı</text><text x="636" y="572">Planlandı</text><text x="850" y="667">Planlandı</text><text x="529" y="762">Planlandı</text>
    </g>

    <rect x="1003" y="389" width="285" height="412" rx="19" fill="#fff" stroke="#e3e8e2" stroke-width="2"/>
    <text x="1030" y="430" fill="#153a3b" font-family="Georgia, serif" font-size="25" font-weight="700">Hızlı işlemler</text>
    <line x1="1030" y1="451" x2="1260" y2="451" stroke="#e8ede8"/>
    <g font-size="15" font-weight="700" fill="#153a3b">
      <text x="1077" y="502">Yeni danışan</text>
      <text x="1077" y="570">Randevu oluştur</text>
      <text x="1077" y="638">Paket tanımla</text>
      <text x="1077" y="706">Ödeme kaydet</text>
    </g>
    <g fill="#def1e8"><rect x="1029" y="473" width="34" height="34" rx="9"/><rect x="1029" y="541" width="34" height="34" rx="9"/><rect x="1029" y="609" width="34" height="34" rx="9"/><rect x="1029" y="677" width="34" height="34" rx="9"/></g>
    <g fill="#1d756b" font-size="23" font-weight="700" text-anchor="middle"><text x="1046" y="498">+</text><text x="1046" y="566">+</text><text x="1046" y="634">+</text><text x="1046" y="702">+</text></g>
    <g stroke="#edf1ed"><line x1="1030" y1="524" x2="1260" y2="524"/><line x1="1030" y1="592" x2="1260" y2="592"/><line x1="1030" y1="660" x2="1260" y2="660"/></g>
  </g>
  <circle cx="700" cy="872" r="5" fill="#637174"/>
  <path d="M590 895h220l24 65H566z" fill="url(#stand)"/>
  <rect x="435" y="957" width="530" height="26" rx="13" fill="#a8b8b8"/>
  <text x="1322" y="1000" fill="#62847a" font-family="Arial, Helvetica, sans-serif" font-size="15" letter-spacing="2" text-anchor="end">TEMSİLİ GÖRÜNÜM</text>
</svg>
